<?xml version="1.0" encoding="UTF-8"?>
<svg id="Layer_1" data-name="Layer 1" xmlns="http://www.w3.org/2000/svg" viewBox="0 0 359.76 393.36">
  <defs>
    <style>
      .cls-1 {
        fill: #000;
        stroke-width: 0px;
      }
    </style>
  </defs>
  <path class="cls-1" d="M99.36.24c1.85.14,3.71.29,5.56.43,11.81.87,23.04,3.98,33.68,9.11,18.22,8.78,32.72,21.73,43.32,39,6.29,10.24,10.15,21.38,12.24,33.18,1.65,9.34,2.16,18.73,1.14,28.17-1.48,13.72-5.92,26.45-13.08,38.22-1.58,2.59-3.34,5.07-5.02,7.6-.15.23-.33.46-.48.69-1.9,2.81-1.84,4.45.36,7.01,1.53,1.79,3.14,3.52,4.71,5.28,17.65,19.83,35.3,39.65,52.94,59.48,1.92,2.16,3.09,4.76,4.05,7.43,3.47,9.66,10.44,15.15,20.33,17.12,6.46,1.29,12.96,2.41,19.44,3.59,7.32,1.33,13.37,4.73,18.14,10.52,18.45,22.36,36.96,44.66,55.46,66.98,1.66,2,3.26,4.05,5,5.98,1.64,1.81,2.09,3.99,2.37,6.27.04.34.16.67.25,1v1.92c-.54,2.34-1.89,3.91-4.29,4.41-2.39.5-4.47-.27-6.18-1.86-2.16-2.02-4.29-4.08-6.22-6.31-16.1-18.53-32.13-37.12-48.24-55.65-1.38-1.58-2.98-3.02-4.66-4.28-1.95-1.46-4.13-1.67-6.24-.16-2.2,1.58-3.47,3.62-2.97,6.46.46,2.61,1.88,4.73,3.51,6.72,16.39,20.01,32.82,40,49.18,60.04,1.65,2.03,3.15,4.23,4.38,6.54,1.15,2.16.93,4.44-.88,6.32-1.91,1.99-4.19,2.52-6.79,1.63-2.39-.81-4.22-2.41-5.85-4.25-13.48-15.13-26.95-30.28-40.43-45.41-4.52-5.07-9.06-10.13-13.62-15.17-1.28-1.41-2.87-2.41-4.76-2.86-3.48-.83-5.42.07-6.63,2.98-1.43,3.43-.36,6.34,1.81,9,3.22,3.93,6.47,7.82,9.73,11.72,14.4,17.2,28.82,34.38,43.2,51.59.89,1.06,1.68,2.26,2.24,3.52,1.09,2.48.56,4.74-1.29,6.73-1.22,1.31-2.74,1.99-4.42,2.45h-1.2c-3.79-.78-5.95-3.76-8.3-6.35-13.67-15.12-27.28-30.3-40.89-45.47-6.97-7.76-13.88-15.58-20.86-23.33-6.22-6.91-8.96-15.01-8.24-24.23.22-2.9.87-5.76,1.24-8.65,1.56-12.11-2.86-21.66-12.97-28.23-5.3-3.44-9.78-7.53-13.71-12.37-15.85-19.52-31.7-39.04-47.58-58.54-1.46-1.79-3.12-3.42-4.74-5.19-1.37.74-2.68,1.47-4.01,2.18-12.39,6.61-25.56,10.68-39.55,11.83-19.3,1.59-37.96-1.11-55.67-9.17-17.52-7.97-30.65-20.73-39.9-37.52-6.73-12.23-11.1-25.26-12.93-39.12-.28-2.1-.37-4.22-.56-6.33-.03-.38-.14-.75-.21-1.12,0-2.64,0-5.28,0-7.92.07-.3.17-.6.2-.91.23-2.39.36-4.78.67-7.16,1.43-10.88,4.86-21.12,9.89-30.85,10.46-20.22,25.66-35.57,46.48-45.11C68.27,4.88,79.48,1.47,91.38.64c1.78-.12,3.56-.26,5.34-.4.88,0,1.76,0,2.64,0ZM20.94,96.9c.28,4.45.39,7.73.72,10.99.23,2.3.61,4.6,1.13,6.85,5.59,24.11,19.56,41.67,41.73,52.52,14.38,7.04,29.69,8.76,45.47,6.53,17.53-2.48,32.77-9.73,44.85-22.75,17.66-19.02,24.06-41.59,19.23-67.01-3.88-20.39-14.78-36.65-31.46-48.93-12.25-9.03-26.06-14-41.29-14.62-13.54-.55-26.47,2.2-38.31,8.81-26.87,14.99-41.03,37.87-42.07,67.61Z"/>
</svg>